<?xml version="1.0" encoding="UTF-8"?>
<svg version="1.1" xmlns="http://www.w3.org/2000/svg" width="444" height="387">
<path d="M0 0 C51.48 0 102.96 0 156 0 C156 14.19 156 28.38 156 43 C155.34 43 154.68 43 154 43 C152.59887695 41.39868164 152.59887695 41.39868164 150.98828125 39.16015625 C150.39466797 38.34353516 149.80105469 37.52691406 149.18945312 36.68554688 C148.57005859 35.81994141 147.95066406 34.95433594 147.3125 34.0625 C145.48647269 31.53430536 143.6585753 29.01228454 141.78369141 26.52001953 C140 24 140 24 138.64990234 21.39794922 C137.09704934 18.42206681 137.09704934 18.42206681 133 15 C126.73 14.67 120.46 14.34 114 14 C114 31.82 114 49.64 114 68 C120.5813402 67.74482421 120.5813402 67.74482421 122.94042969 65.17407227 C123.42930664 64.39604248 123.91818359 63.6180127 124.421875 62.81640625 C124.97230469 61.97142578 125.52273437 61.12644531 126.08984375 60.25585938 C126.91162109 58.92264648 126.91162109 58.92264648 127.75 57.5625 C128.86507291 55.81078935 129.98467497 54.06195133 131.109375 52.31640625 C131.59374023 51.53724854 132.07810547 50.75809082 132.57714844 49.95532227 C134 48 134 48 137 46 C137 65.14 137 84.28 137 104 C136.34 104 135.68 104 135 104 C133.59887695 102.08813477 133.59887695 102.08813477 131.98828125 99.44140625 C131.39466797 98.49845703 130.80105469 97.55550781 130.18945312 96.58398438 C128.94531667 94.58119656 127.71335547 92.5707903 126.49414062 90.55273438 C125.89408203 89.60849609 125.29402344 88.66425781 124.67578125 87.69140625 C124.13864502 86.81685791 123.60150879 85.94230957 123.0480957 85.04125977 C120.64236694 82.23621688 120.64236694 82.23621688 114 82 C114.33 99.82 114.66 117.64 115 136 C133.45264484 137.06378388 133.45264484 137.06378388 139.8046875 131.0625 C141.47668012 128.61745108 141.47668012 128.61745108 142.875 126 C143.40222656 125.17371094 143.92945313 124.34742188 144.47265625 123.49609375 C145.51597623 121.84996667 146.53343291 120.18712024 147.52246094 118.5078125 C149.04503742 115.92355843 150.62581839 113.39152506 152.2578125 110.875 C152.73621582 110.12992187 153.21461914 109.38484375 153.70751953 108.6171875 C154.13403809 108.08351563 154.56055664 107.54984375 155 107 C155.66 107 156.32 107 157 107 C157 121.19 157 135.38 157 150 C128.95 150 100.9 150 72 150 C72 147 72 147 73.57421875 145.3515625 C74.27160156 144.78179687 74.96898437 144.21203125 75.6875 143.625 C77.1361556 142.43006374 78.57279304 141.22047367 80 140 C80.85683884 139.37213593 81.71367767 138.74427185 82.59648132 138.09738159 C86.19859363 133.45538881 85.72291232 129.25458534 85.69458008 123.52783203 C85.70816055 122.36791748 85.72174103 121.20800293 85.73573303 120.01293945 C85.77304056 116.17758021 85.77306329 112.34333716 85.76953125 108.5078125 C85.77774073 106.51530442 85.78596132 104.52279593 85.79580516 102.53029525 C85.82611189 96.2660199 85.8294665 90.00211658 85.81665039 83.73779297 C85.80397427 77.28603501 85.83913147 70.83577393 85.89753419 64.3843013 C85.94592134 58.8358507 85.9631994 53.28787853 85.95605963 47.73922241 C85.95218729 44.42923928 85.96375261 41.12063178 85.99866676 37.81079483 C86.03316906 34.11632407 86.01676244 30.42539943 85.98754883 26.73095703 C86.0189093 25.09735733 86.0189093 25.09735733 86.05090332 23.43075562 C85.96900306 17.6895317 85.96900306 17.6895317 83.240942 12.8067894 C81.23729267 11.04471094 79.19138596 9.51750216 77 8 C75.64989719 6.68364976 74.30585054 5.36026098 73 4 C69.00505872 13.06561534 65.75898901 22.29884469 62.6114502 31.68347168 C56.99001481 48.43147776 51.17088687 65.10577302 45.25 81.75 C40.01798397 96.46033556 34.81949061 111.17909906 29.77832031 125.95605469 C29.41834961 127.00954102 29.05837891 128.06302734 28.6875 129.1484375 C28.38199219 130.04739746 28.07648438 130.94635742 27.76171875 131.87255859 C27 134 27 134 26 136 C33.34258119 136.92977183 40.92825393 137.51269837 48 135 C53.90495255 130.40460873 57.66927682 123.86507304 61.4609375 117.51904297 C63.70135839 113.85205966 66.07512348 110.1621041 69 107 C69.66 107 70.32 107 71 107 C71.02464574 112.96313166 71.042834 118.92623395 71.05493164 124.8894043 C71.05997278 126.91968298 71.06680557 128.94995802 71.07543945 130.98022461 C71.08751467 133.89177347 71.09323034 136.8032745 71.09765625 139.71484375 C71.10281754 140.6283812 71.10797882 141.54191864 71.11329651 142.48313904 C71.11349168 144.65575427 71.06211805 146.82827296 71 149 C69.31496301 150.68503699 67.23740116 150.11965983 64.98905945 150.12442017 C64.27264786 150.12082489 63.55623627 150.11722961 62.81811523 150.11352539 C61.6913588 150.11374443 61.6913588 150.11374443 60.5418396 150.1139679 C58.04739541 150.11326863 55.55302497 150.10547564 53.05859375 150.09765625 C51.33366436 150.09579212 49.60873443 150.09436819 47.88380432 150.09336853 C43.33487497 150.08954297 38.78597733 150.07971238 34.23706055 150.06866455 C29.59879994 150.05845124 24.96053423 150.05387108 20.32226562 150.04882812 C11.21482978 150.03809014 2.10741752 150.02101327 -7 150 C-5.65507406 143.39106736 -3.82124251 137.16386774 -1.578125 130.80859375 C-1.24171997 129.84254715 -0.90531494 128.87650055 -0.55871582 127.88117981 C0.53938336 124.73158463 1.64461576 121.58454498 2.75 118.4375 C3.52094638 116.23094745 4.29144885 114.02423976 5.06152344 111.81738281 C7.00440282 106.2531575 8.95304315 100.69096947 10.90332031 95.1293335 C12.53289481 90.47940507 14.1571166 85.82761229 15.78125 81.17578125 C23.48976557 59.10631364 31.24476857 37.05308645 39 15 C29.20585752 13.6953348 29.20585752 13.6953348 20.26025391 16.85595703 C18.00326594 19.47533606 16.145216 22.13132297 14.3125 25.0625 C13.66345703 26.00544922 13.01441406 26.94839844 12.34570312 27.91992188 C10.51900566 30.58656568 8.75533834 33.28606895 7 36 C5.39696366 38.40848224 3.76677588 40.70478305 2 43 C1.34 43 0.68 43 0 43 C0 28.81 0 14.62 0 0 Z " fill="#B53220" transform="translate(67,115)"/>
<path d="M0 0 C0.7425 0.61875 1.485 1.2375 2.25 1.875 C2.8275 2.24625 3.405 2.6175 4 3 C9.12300798 0.95079681 14.06486519 -1.5324326 19 -4 C19 12.83 19 29.66 19 47 C18.34 47 17.68 47 17 47 C16.50371094 45.88882813 16.00742187 44.77765625 15.49609375 43.6328125 C6.70948314 23.85884488 6.70948314 23.85884488 -10 11 C-14.90397759 10.31424053 -18.79003819 10.25920705 -23.0625 12.875 C-25.49505437 15.54296286 -25.9499582 16.49958196 -26.3125 20.125 C-25.31679754 32.47171045 -13.93703573 40.58339138 -5.15625 48.140625 C11.82200194 62.78129153 25.33249463 77.68936752 28 101 C29.03522113 115.14316197 27.43490194 129.21791475 19 141 C13.34711936 147.51600865 6.43817551 151.34390171 -2.140625 152.37890625 C-12.69607195 152.76660632 -21.15380546 149.50429882 -30 144 C-30.85464844 144.5775 -31.70929688 145.155 -32.58984375 145.75 C-33.70564811 146.50012058 -34.82153795 147.25011404 -35.9375 148 C-36.50146484 148.3815625 -37.06542969 148.763125 -37.64648438 149.15625 C-41.88671875 152 -41.88671875 152 -43 152 C-43 133.85 -43 115.7 -43 97 C-42.34 97 -41.68 97 -41 97 C-40.65388672 98.23363281 -40.65388672 98.23363281 -40.30078125 99.4921875 C-36.26202747 113.31653837 -30.5212231 126.20738648 -18.25 134.6875 C-12.4506236 137.84170628 -6.44420603 137.90812659 0 137 C2.56835135 136.11129711 3.66267641 135.47912841 5.2265625 133.2578125 C7.74085202 125.91811884 6.58460177 117.3158209 3.37890625 110.390625 C-2.63328275 99.96722651 -12.00621926 91.23139009 -21.0625 83.4375 C-33.86674602 72.39121398 -44.54251058 60.48987307 -46 43 C-46.72887222 29.79141317 -44.7909358 16.65055636 -36.40234375 5.96484375 C-26.53731422 -4.61927677 -12.6440128 -7.31063291 0 0 Z " fill="#B53220" transform="translate(273,116)"/>
<path d="M0 0 C9.89189376 -0.02312428 19.78378114 -0.04091552 29.67569637 -0.05181217 C34.2684264 -0.05704082 38.861138 -0.06413812 43.45385742 -0.07543945 C47.88233688 -0.086269 52.31079856 -0.09227698 56.73929024 -0.09487724 C58.43265628 -0.09673137 60.12602129 -0.10035175 61.81937981 -0.10573006 C64.18291232 -0.1129414 66.54637045 -0.1139909 68.90991211 -0.11352539 C69.61697296 -0.11712067 70.32403381 -0.12071594 71.05252075 -0.12442017 C75.88594784 -0.11405216 75.88594784 -0.11405216 77 1 C77.15875232 2.73683718 77.25135801 4.47979239 77.31640625 6.22265625 C77.3793689 7.85678467 77.3793689 7.85678467 77.44360352 9.52392578 C77.48283936 10.69165527 77.5220752 11.85938477 77.5625 13.0625 C77.6049585 14.23796387 77.64741699 15.41342773 77.69116211 16.62451172 C77.9910525 25.4208942 78.11964693 34.19930383 78 43 C77.34 43 76.68 43 76 43 C74.59887695 41.39868164 74.59887695 41.39868164 72.98828125 39.16015625 C72.39466797 38.34353516 71.80105469 37.52691406 71.18945312 36.68554688 C70.57005859 35.81994141 69.95066406 34.95433594 69.3125 34.0625 C63.82243364 26.46057249 63.82243364 26.46057249 58.23046875 18.93359375 C57.68156982 18.20068115 57.1326709 17.46776855 56.56713867 16.71264648 C55.01125768 14.73352121 55.01125768 14.73352121 52 14 C51.80281564 29.40418914 51.68699626 44.8074402 51.66578102 60.21280098 C51.65406872 67.36749843 51.61659144 74.52026296 51.51660156 81.67431641 C51.42942722 87.91626937 51.39248612 94.15624788 51.41372812 100.39880645 C51.4232624 103.69986799 51.40161421 106.9957504 51.33458328 110.29626846 C50.58666355 126.8138296 50.58666355 126.8138296 58.11929893 140.77842522 C60.94604829 143.38076597 63.94285954 145.67477356 67 148 C67 148.66 67 149.32 67 150 C48.19 150 29.38 150 10 150 C10 147 10 147 11.57421875 145.3515625 C12.62029297 144.49691406 12.62029297 144.49691406 13.6875 143.625 C15.1361556 142.43006374 16.57279304 141.22047367 18 140 C18.85756393 139.37632034 19.71512787 138.75264069 20.59867859 138.11006165 C24.22435847 133.41427711 23.70420711 129.10591552 23.65942383 123.32495117 C23.67514938 121.55358292 23.67514938 121.55358292 23.69119263 119.74642944 C23.71502214 116.51720938 23.71687497 113.28887983 23.70889878 110.05961013 C23.70577053 106.68159327 23.73081724 103.30378709 23.75285339 99.92585754 C23.7902853 93.53340398 23.80244085 87.14116314 23.8054778 80.74861079 C23.81016959 73.46920812 23.84309665 66.19001842 23.87837565 58.91070974 C23.95029689 43.94049777 23.98682476 28.97038759 24 14 C20.51811352 15.16062883 19.97996086 16.02548015 17.890625 18.9375 C17.30023438 19.75089844 16.70984375 20.56429687 16.1015625 21.40234375 C15.18503906 22.68818359 15.18503906 22.68818359 14.25 24 C6.93608663 34.14765902 6.93608663 34.14765902 3.171875 39.125 C2.33027832 40.24261719 2.33027832 40.24261719 1.47167969 41.3828125 C0.98602539 41.91648438 0.50037109 42.45015625 0 43 C-0.66 43 -1.32 43 -2 43 C-1.8811509 38.00107706 -1.75686619 33.00232876 -1.62768555 28.00366211 C-1.5845478 26.30545665 -1.54285916 24.60721371 -1.50268555 22.90893555 C-1.44446656 20.45870702 -1.38092497 18.00866353 -1.31640625 15.55859375 C-1.29969376 14.80726669 -1.28298126 14.05593964 -1.26576233 13.28184509 C-1.24581711 12.56162674 -1.22587189 11.84140839 -1.20532227 11.09936523 C-1.18977798 10.47537338 -1.1742337 9.85138153 -1.15821838 9.20848083 C-0.93652136 6.1139376 -0.46059181 3.06683715 0 0 Z " fill="#B63220" transform="translate(304,115)"/>
<path d="M0 0 C50.82 0 101.64 0 154 0 C154 0.33 154 0.66 154 1 C103.18 1 52.36 1 0 1 C0 0.67 0 0.34 0 0 Z " fill="#0B0D0C" transform="translate(68,113)"/>
<path d="M0 0 C0.33 0 0.66 0 1 0 C1 39.27 1 78.54 1 119 C0.01 119 -0.98 119 -2 119 C-1.505 118.505 -1.505 118.505 -1 118 C-0.89205032 116.4695654 -0.85317012 114.9342039 -0.84178162 113.40000916 C-0.8319928 112.40576431 -0.82220398 111.41151947 -0.81211853 110.387146 C-0.80348534 108.73745819 -0.80348534 108.73745819 -0.79467773 107.05444336 C-0.78477814 105.90337601 -0.77487854 104.75230865 -0.76467896 103.56636047 C-0.73295338 99.74087621 -0.70826297 95.9153795 -0.68359375 92.08984375 C-0.66303376 89.44568041 -0.64203756 86.80152043 -0.62062073 84.15736389 C-0.57064394 77.89587961 -0.52572369 71.63436955 -0.48259836 65.37283474 C-0.4332685 58.24595156 -0.37833466 51.11911508 -0.32291877 43.99227703 C-0.20902223 29.32822888 -0.10219997 14.66413427 0 0 Z " fill="#8B271A" transform="translate(151,131)"/>
<path d="M0 0 C0.66 0 1.32 0 2 0 C2 39.27 2 78.54 2 119 C1.67 119 1.34 119 1 119 C0.67 79.73 0.34 40.46 0 0 Z " fill="#822518" transform="translate(325,130)"/>
<path d="M0 0 C0.99 0.495 0.99 0.495 2 1 C1.67 39.94 1.34 78.88 1 119 C0.67 119 0.34 119 0 119 C0 79.73 0 40.46 0 0 Z " fill="#BC3422" transform="translate(357,130)"/>
<path d="M0 0 C28.05 0 56.1 0 85 0 C85 0.33 85 0.66 85 1 C56.95 1 28.9 1 0 1 C0 0.67 0 0.34 0 0 Z " fill="#BD3320" transform="translate(139,266)"/>
<path d="M0 0 C25.41 0 50.82 0 77 0 C77 0.33 77 0.66 77 1 C51.59 1 26.18 1 0 1 C0 0.67 0 0.34 0 0 Z " fill="#BD3320" transform="translate(60,266)"/>
<path d="M0 0 C24.75 0 49.5 0 75 0 C75 0.33 75 0.66 75 1 C50.25 1 25.5 1 0 1 C0 0.67 0 0.34 0 0 Z " fill="#0C0D0C" transform="translate(305,113)"/>
<path d="M0 0 C5.94 0 11.88 0 18 0 C18 0.33 18 0.66 18 1 C12.39 1 6.78 1 1 1 C1 17.5 1 34 1 51 C2.65 51 4.3 51 6 51 C6 51.33 6 51.66 6 52 C4.02 52 2.04 52 0 52 C0 34.84 0 17.68 0 0 Z " fill="#B13220" transform="translate(182,130)"/>
<path d="M0 0 C0.33 0 0.66 0 1 0 C1 18.48 1 36.96 1 56 C0.67 56 0.34 56 0 56 C-0.33 39.17 -0.66 22.34 -1 5 C-1.66 5 -2.32 5 -3 5 C-1.125 1.125 -1.125 1.125 0 0 Z " fill="#7B2116" transform="translate(203,161)"/>
<path d="M0 0 C1.98 0 3.96 0 6 0 C6 0.33 6 0.66 6 1 C4.35 1 2.7 1 1 1 C1 17.83 1 34.66 1 52 C0.67 52 0.34 52 0 52 C0 34.84 0 17.68 0 0 Z " fill="#BD3521" transform="translate(182,198)"/>
<path d="M0 0 C18.48 0 36.96 0 56 0 C56 0.33 56 0.66 56 1 C37.52 1 19.04 1 0 1 C0 0.67 0 0.34 0 0 Z " fill="#BD3320" transform="translate(314,266)"/>
<path d="M0 0 C0.33 0 0.66 0 1 0 C1 17.49 1 34.98 1 53 C0.67 53 0.34 53 0 53 C0 35.51 0 18.02 0 0 Z " fill="#9F2C1D" transform="translate(228,214)"/>
<path d="M0 0 C0.33 0 0.66 0 1 0 C1 16.17 1 32.34 1 49 C0.67 49 0.34 49 0 49 C0 32.83 0 16.66 0 0 Z " fill="#8F2819" transform="translate(293,113)"/>
<path d="M0 0 C0.33 0 0.66 0 1 0 C1.19255164 5.33817081 1.37122798 10.67655874 1.53710938 16.015625 C1.595477 17.83150657 1.65762216 19.64727083 1.72363281 21.46289062 C1.81790706 24.07400148 1.89854918 26.68523395 1.9765625 29.296875 C2.02485703 30.51271271 2.02485703 30.51271271 2.0741272 31.75311279 C2.1873954 36.02337505 1.96024327 38.07951347 0 42 C0 28.14 0 14.28 0 0 Z " fill="#8E2A1B" transform="translate(224,116)"/>
<path d="M0 0 C0.33 0 0.66 0 1 0 C1 13.86 1 27.72 1 42 C0.67 42 0.34 42 0 42 C0 28.14 0 14.28 0 0 Z " fill="#D93E28" transform="translate(225,223)"/>
<path d="M0 0 C0.33 0 0.66 0 1 0 C1 13.86 1 27.72 1 42 C0.67 42 0.34 42 0 42 C0 28.14 0 14.28 0 0 Z " fill="#8B271A" transform="translate(65,116)"/>
<path d="M0 0 C0.33 0 0.66 0 1 0 C1 6.6 1 13.2 1 20 C0.67 20 0.34 20 0 20 C0 13.4 0 6.8 0 0 Z " fill="#A2311F" transform="translate(301,130)"/>
<path d="M0 0 C0.33 0 0.66 0 1 0 C1 6.27 1 12.54 1 19 C0.67 19 0.34 19 0 19 C0 12.73 0 6.46 0 0 Z " fill="#AE3320" transform="translate(382,121)"/>
<path d="M0 0 C4.95 0 9.9 0 15 0 C14.67 0.99 14.34 1.98 14 3 C14 2.34 14 1.68 14 1 C9.38 1 4.76 1 0 1 C0 0.67 0 0.34 0 0 Z " fill="#B93422" transform="translate(90,130)"/>
<path d="M0 0 C3.96 0 7.92 0 12 0 C12 0.33 12 0.66 12 1 C8.04 1 4.08 1 0 1 C0 0.67 0 0.34 0 0 Z " fill="#BD3420" transform="translate(261,269)"/>
<path d="M0 0 C2.97 0 5.94 0 9 0 C9 0.33 9 0.66 9 1 C6.03 1 3.06 1 0 1 C0 0.67 0 0.34 0 0 Z " fill="#BD3421" transform="translate(254,127)"/>
<path d="M0 0 C0.33 0 0.66 0 1 0 C1 2.31 1 4.62 1 7 C0.67 7 0.34 7 0 7 C0 4.69 0 2.38 0 0 Z " fill="#9E2C1C" transform="translate(383,151)"/>
<path d="M0 0 C2.31 0 4.62 0 7 0 C7 0.33 7 0.66 7 1 C4.69 1 2.38 1 0 1 C0 0.67 0 0.34 0 0 Z " fill="#110E0D" transform="translate(255,110)"/>
<path d="M0 0 C0.33 0 0.66 0 1 0 C1 1.98 1 3.96 1 6 C0.67 6 0.34 6 0 6 C0 4.02 0 2.04 0 0 Z " fill="#B33220" transform="translate(247,134)"/>
<path d="M0 0 C0.33 1.32 0.66 2.64 1 4 C0.34 3.67 -0.32 3.34 -1 3 C-0.67 2.01 -0.34 1.02 0 0 Z " fill="#9A2D1E" transform="translate(95,246)"/>
<path d="M0 0 C0.33 0 0.66 0 1 0 C1 1.65 1 3.3 1 5 C0.67 5 0.34 5 0 5 C0 3.35 0 1.7 0 0 Z " fill="#B53220" transform="translate(301,232)"/>
<path d="M0 0 C0.33 0 0.66 0 1 0 C1 1.65 1 3.3 1 5 C0.67 5 0.34 5 0 5 C0 3.35 0 1.7 0 0 Z " fill="#A42E1E" transform="translate(301,211)"/>
<path d="M0 0 C0.33 0 0.66 0 1 0 C1 1.65 1 3.3 1 5 C0.67 5 0.34 5 0 5 C0 3.35 0 1.7 0 0 Z " fill="#AF311F" transform="translate(226,160)"/>
<path d="M0 0 C0.33 0 0.66 0 1 0 C1 1.65 1 3.3 1 5 C0.67 5 0.34 5 0 5 C0 3.35 0 1.7 0 0 Z " fill="#9C301E" transform="translate(226,141)"/>
<path d="M0 0 C4 1 4 1 4 1 Z " fill="#25120F" transform="translate(269,252)"/>
<path d="M0 0 C1 4 1 4 1 4 Z " fill="#A02D1D" transform="translate(278,243)"/>
<path d="M0 0 C1 4 1 4 1 4 Z " fill="#B83321" transform="translate(278,234)"/>
<path d="M0 0 C0.99 0.495 0.99 0.495 2 1 C1.67 1.66 1.34 2.32 1 3 C0.67 2.01 0.34 1.02 0 0 Z " fill="#BC3322" transform="translate(267,215)"/>
<path d="M0 0 C0.99 0.33 1.98 0.66 3 1 C2.01 1 1.02 1 0 1 C0 0.67 0 0.34 0 0 Z " fill="#BE3422" transform="translate(258,207)"/>
<path d="M0 0 C1 4 1 4 1 4 Z " fill="#DD5334" transform="translate(302,116)"/>
<path d="M0 0 C3 1 3 1 3 1 Z " fill="#BE3421" transform="translate(274,268)"/>
<path d="" fill="#81271A" transform="translate(0,0)"/>
<path d="M0 0 C3 1 3 1 3 1 Z " fill="#1A110E" transform="translate(261,252)"/>
<path d="M0 0 C0.33 0.66 0.66 1.32 1 2 C0.34 1.67 -0.32 1.34 -1 1 C-0.67 0.67 -0.34 0.34 0 0 Z " fill="#552217" transform="translate(276,249)"/>
<path d="M0 0 C0.33 0.66 0.66 1.32 1 2 C0.34 1.67 -0.32 1.34 -1 1 C-0.67 0.67 -0.34 0.34 0 0 Z " fill="#391410" transform="translate(201,248)"/>
<path d="" fill="#B43220" transform="translate(0,0)"/>
<path d="" fill="#913522" transform="translate(0,0)"/>
<path d="" fill="#BD3421" transform="translate(0,0)"/>
<path d="" fill="#C63824" transform="translate(0,0)"/>
<path d="" fill="#923D25" transform="translate(0,0)"/>
<path d="" fill="#88271A" transform="translate(0,0)"/>
<path d="" fill="#C13623" transform="translate(0,0)"/>
<path d="" fill="#8B291B" transform="translate(0,0)"/>
<path d="" fill="#913623" transform="translate(0,0)"/>
<path d="" fill="#BE3521" transform="translate(0,0)"/>
<path d="" fill="#C73824" transform="translate(0,0)"/>
<path d="" fill="#903F27" transform="translate(0,0)"/>
<path d="" fill="#B3321F" transform="translate(0,0)"/>
<path d="" fill="#C13623" transform="translate(0,0)"/>
<path d="" fill="#903722" transform="translate(0,0)"/>
<path d="" fill="#90291B" transform="translate(0,0)"/>
<path d="" fill="#C73723" transform="translate(0,0)"/>
<path d="" fill="#903F27" transform="translate(0,0)"/>
<path d="M0 0 C0.99 0.495 0.99 0.495 2 1 C1.01 1.495 1.01 1.495 0 2 C0 1.34 0 0.68 0 0 Z " fill="#BE3521" transform="translate(139,120)"/>
<path d="M0 0 C3 1 3 1 3 1 Z " fill="#2D1510" transform="translate(264,111)"/>
<path d="M0 0 C3 1 3 1 3 1 Z " fill="#1E120F" transform="translate(250,111)"/>
<path d="M0 0 C2 1 2 1 2 1 Z " fill="#BD3421" transform="translate(258,268)"/>
<path d="M0 0 C2 1 2 1 2 1 Z " fill="#BD3521" transform="translate(278,267)"/>
<path d="M0 0 C2 1 2 1 2 1 Z " fill="#BD3522" transform="translate(255,267)"/>
<path d="M0 0 C2 1 2 1 2 1 Z " fill="#BD3421" transform="translate(252,266)"/>
<path d="M0 0 C2 1 2 1 2 1 Z " fill="#BD3521" transform="translate(234,266)"/>
<path d="M0 0 C2 1 2 1 2 1 Z " fill="#BD3420" transform="translate(250,265)"/>
<path d="M0 0 C2 1 2 1 2 1 Z " fill="#BD3522" transform="translate(284,264)"/>
<path d="M0 0 C2 1 2 1 2 1 Z " fill="#BC3522" transform="translate(237,264)"/>
<path d="M0 0 C2 1 2 1 2 1 Z " fill="#BD3320" transform="translate(245,262)"/>
<path d="M0 0 C2 1 2 1 2 1 Z " fill="#BD3422" transform="translate(240,262)"/>
<path d="" fill="#B03924" transform="translate(0,0)"/>
<path d="" fill="#AC3121" transform="translate(0,0)"/>
<path d="" fill="#942C1C" transform="translate(0,0)"/>
<path d="" fill="#812619" transform="translate(0,0)"/>
<path d="M0 0 C2 1 2 1 2 1 Z " fill="#18100E" transform="translate(258,251)"/>
<path d="M0 0 C2 1 2 1 2 1 Z " fill="#2C120F" transform="translate(254,249)"/>
<path d="" fill="#722318" transform="translate(0,0)"/>
<path d="" fill="#B83320" transform="translate(0,0)"/>
<path d="" fill="#682116" transform="translate(0,0)"/>
<path d="" fill="#7F291B" transform="translate(0,0)"/>
<path d="" fill="#B6321F" transform="translate(0,0)"/>
<path d="" fill="#B83320" transform="translate(0,0)"/>
<path d="" fill="#611F16" transform="translate(0,0)"/>
<path d="" fill="#B7321F" transform="translate(0,0)"/>
<path d="" fill="#7F3020" transform="translate(0,0)"/>
<path d="" fill="#B73220" transform="translate(0,0)"/>
<path d="" fill="#722419" transform="translate(0,0)"/>
<path d="" fill="#AE3621" transform="translate(0,0)"/>
<path d="" fill="#825A38" transform="translate(0,0)"/>
<path d="" fill="#4E1812" transform="translate(0,0)"/>
<path d="" fill="#B93321" transform="translate(0,0)"/>
<path d="" fill="#5A1E15" transform="translate(0,0)"/>
<path d="" fill="#A12E1E" transform="translate(0,0)"/>
<path d="" fill="#541913" transform="translate(0,0)"/>
<path d="" fill="#BA3421" transform="translate(0,0)"/>
<path d="" fill="#AF311F" transform="translate(0,0)"/>
<path d="" fill="#AF5B37" transform="translate(0,0)"/>
<path d="" fill="#89281B" transform="translate(0,0)"/>
<path d="" fill="#B1472B" transform="translate(0,0)"/>
<path d="" fill="#4F1812" transform="translate(0,0)"/>
<path d="" fill="#BC3421" transform="translate(0,0)"/>
<path d="" fill="#B73321" transform="translate(0,0)"/>
<path d="" fill="#5A1B14" transform="translate(0,0)"/>
<path d="" fill="#792519" transform="translate(0,0)"/>
<path d="" fill="#B93321" transform="translate(0,0)"/>
<path d="" fill="#5D1E16" transform="translate(0,0)"/>
<path d="" fill="#641E15" transform="translate(0,0)"/>
<path d="" fill="#6D2117" transform="translate(0,0)"/>
<path d="" fill="#C03523" transform="translate(0,0)"/>
<path d="" fill="#AA301E" transform="translate(0,0)"/>
<path d="" fill="#611E15" transform="translate(0,0)"/>
<path d="" fill="#642016" transform="translate(0,0)"/>
<path d="" fill="#BD3523" transform="translate(0,0)"/>
<path d="" fill="#7C2519" transform="translate(0,0)"/>
<path d="" fill="#B63220" transform="translate(0,0)"/>
<path d="" fill="#792418" transform="translate(0,0)"/>
<path d="" fill="#B73320" transform="translate(0,0)"/>
<path d="" fill="#B03A24" transform="translate(0,0)"/>
<path d="" fill="#862719" transform="translate(0,0)"/>
<path d="" fill="#B73320" transform="translate(0,0)"/>
<path d="" fill="#C33925" transform="translate(0,0)"/>
<path d="" fill="#AC3020" transform="translate(0,0)"/>
<path d="" fill="#B83320" transform="translate(0,0)"/>
<path d="" fill="#C33A25" transform="translate(0,0)"/>
<path d="" fill="#952C1C" transform="translate(0,0)"/>
<path d="" fill="#BA3320" transform="translate(0,0)"/>
<path d="" fill="#C33B25" transform="translate(0,0)"/>
<path d="" fill="#802719" transform="translate(0,0)"/>
<path d="" fill="#BF3522" transform="translate(0,0)"/>
<path d="" fill="#C43B25" transform="translate(0,0)"/>
<path d="" fill="#722318" transform="translate(0,0)"/>
<path d="" fill="#C63B24" transform="translate(0,0)"/>
<path d="" fill="#682116" transform="translate(0,0)"/>
<path d="" fill="#B6311F" transform="translate(0,0)"/>
<path d="" fill="#AF3922" transform="translate(0,0)"/>
<path d="" fill="#C63A24" transform="translate(0,0)"/>
<path d="" fill="#601F16" transform="translate(0,0)"/>
<path d="" fill="#B7321F" transform="translate(0,0)"/>
<path d="" fill="#752318" transform="translate(0,0)"/>
<path d="" fill="#902A1B" transform="translate(0,0)"/>
<path d="" fill="#B73220" transform="translate(0,0)"/>
<path d="" fill="#AE3622" transform="translate(0,0)"/>
<path d="" fill="#8A281B" transform="translate(0,0)"/>
<path d="" fill="#B93321" transform="translate(0,0)"/>
<path d="" fill="#4D1A13" transform="translate(0,0)"/>
<path d="" fill="#A22E1D" transform="translate(0,0)"/>
<path d="" fill="#BA3421" transform="translate(0,0)"/>
<path d="" fill="#8B291B" transform="translate(0,0)"/>
<path d="" fill="#89281B" transform="translate(0,0)"/>
<path d="" fill="#BB3422" transform="translate(0,0)"/>
<path d="" fill="#631F16" transform="translate(0,0)"/>
<path d="" fill="#792518" transform="translate(0,0)"/>
<path d="" fill="#BB3320" transform="translate(0,0)"/>
<path d="" fill="#6B2116" transform="translate(0,0)"/>
<path d="" fill="#7F3C26" transform="translate(0,0)"/>
<path d="" fill="#B93321" transform="translate(0,0)"/>
<path d="" fill="#82271B" transform="translate(0,0)"/>
<path d="" fill="#621F16" transform="translate(0,0)"/>
<path d="" fill="#B6321F" transform="translate(0,0)"/>
<path d="" fill="#7C2619" transform="translate(0,0)"/>
<path d="" fill="#BA3320" transform="translate(0,0)"/>
<path d="" fill="#B63220" transform="translate(0,0)"/>
<path d="" fill="#B03A24" transform="translate(0,0)"/>
<path d="" fill="#702318" transform="translate(0,0)"/>
<path d="" fill="#C83623" transform="translate(0,0)"/>
<path d="" fill="#B83321" transform="translate(0,0)"/>
<path d="" fill="#AB3121" transform="translate(0,0)"/>
<path d="" fill="#B4321F" transform="translate(0,0)"/>
<path d="" fill="#6A2218" transform="translate(0,0)"/>
<path d="" fill="#BA3321" transform="translate(0,0)"/>
<path d="" fill="#942B1C" transform="translate(0,0)"/>
<path d="" fill="#642017" transform="translate(0,0)"/>
<path d="" fill="#BA3420" transform="translate(0,0)"/>
<path d="" fill="#802619" transform="translate(0,0)"/>
<path d="M0 0 C2 1 2 1 2 1 Z " fill="#7F311E" transform="translate(270,165)"/>
<path d="" fill="#5E1F15" transform="translate(0,0)"/>
<path d="" fill="#BF3522" transform="translate(0,0)"/>
<path d="" fill="#712318" transform="translate(0,0)"/>
<path d="" fill="#672116" transform="translate(0,0)"/>
<path d="" fill="#BB3322" transform="translate(0,0)"/>
<path d="" fill="#B6311F" transform="translate(0,0)"/>
<path d="" fill="#B93321" transform="translate(0,0)"/>
<path d="M0 0 C2 1 2 1 2 1 Z " fill="#611C14" transform="translate(261,157)"/>
<path d="" fill="#5F1F16" transform="translate(0,0)"/>
<path d="" fill="#BC3421" transform="translate(0,0)"/>
<path d="" fill="#B6321F" transform="translate(0,0)"/>
<path d="" fill="#BC3321" transform="translate(0,0)"/>
<path d="" fill="#BD3322" transform="translate(0,0)"/>
<path d="" fill="#B93220" transform="translate(0,0)"/>
<path d="" fill="#B93220" transform="translate(0,0)"/>
<path d="" fill="#B73220" transform="translate(0,0)"/>
<path d="" fill="#BB3321" transform="translate(0,0)"/>
<path d="" fill="#AD3622" transform="translate(0,0)"/>
<path d="" fill="#BC3321" transform="translate(0,0)"/>
<path d="" fill="#BE3421" transform="translate(0,0)"/>
<path d="" fill="#B93320" transform="translate(0,0)"/>
<path d="" fill="#B93320" transform="translate(0,0)"/>
<path d="" fill="#BB3421" transform="translate(0,0)"/>
<path d="" fill="#A12E1D" transform="translate(0,0)"/>
<path d="" fill="#BC3321" transform="translate(0,0)"/>
<path d="" fill="#BC3421" transform="translate(0,0)"/>
<path d="" fill="#BC3520" transform="translate(0,0)"/>
<path d="" fill="#BA3421" transform="translate(0,0)"/>
<path d="" fill="#B93421" transform="translate(0,0)"/>
<path d="" fill="#883120" transform="translate(0,0)"/>
<path d="" fill="#89281B" transform="translate(0,0)"/>
<path d="" fill="#BC3320" transform="translate(0,0)"/>
<path d="" fill="#BC3421" transform="translate(0,0)"/>
<path d="" fill="#BC3520" transform="translate(0,0)"/>
<path d="" fill="#BC3321" transform="translate(0,0)"/>
<path d="" fill="#782518" transform="translate(0,0)"/>
<path d="" fill="#BF3522" transform="translate(0,0)"/>
<path d="" fill="#692116" transform="translate(0,0)"/>
<path d="" fill="#C03622" transform="translate(0,0)"/>
<path d="" fill="#BC3321" transform="translate(0,0)"/>
<path d="" fill="#6A2116" transform="translate(0,0)"/>
<path d="" fill="#BC3521" transform="translate(0,0)"/>
<path d="" fill="#BD3422" transform="translate(0,0)"/>
<path d="" fill="#BD3321" transform="translate(0,0)"/>
<path d="" fill="#622016" transform="translate(0,0)"/>
<path d="" fill="#B6321F" transform="translate(0,0)"/>
<path d="" fill="#BD3520" transform="translate(0,0)"/>
<path d="" fill="#BD3522" transform="translate(0,0)"/>
<path d="" fill="#6A2116" transform="translate(0,0)"/>
<path d="" fill="#B4492E" transform="translate(0,0)"/>
<path d="" fill="#B73220" transform="translate(0,0)"/>
<path d="" fill="#BB3421" transform="translate(0,0)"/>
<path d="" fill="#BC3520" transform="translate(0,0)"/>
<path d="M0 0 C2 1 2 1 2 1 Z " fill="#BD3421" transform="translate(267,130)"/>
<path d="" fill="#B83321" transform="translate(0,0)"/>
<path d="M0 0 C2 1 2 1 2 1 Z " fill="#BD3421" transform="translate(263,128)"/>
<path d="M0 0 C2 1 2 1 2 1 Z " fill="#BD3421" transform="translate(251,128)"/>
<path d="" fill="#B93321" transform="translate(0,0)"/>
<path d="" fill="#4A1912" transform="translate(0,0)"/>
<path d="" fill="#BB3320" transform="translate(0,0)"/>
<path d="M0 0 C2 1 2 1 2 1 Z " fill="#551C15" transform="translate(277,118)"/>
<path d="M0 0 C2 1 2 1 2 1 Z " fill="#27130E" transform="translate(282,115)"/>
<path d="M0 0 C2 1 2 1 2 1 Z " fill="#3E1812" transform="translate(242,115)"/>
<path d="M0 0 C2 1 2 1 2 1 Z " fill="#622016" transform="translate(284,114)"/>
<path d="M0 0 C2 1 2 1 2 1 Z " fill="#140F0D" transform="translate(245,113)"/>
<path d="M0 0 C2 1 2 1 2 1 Z " fill="#17100E" transform="translate(268,112)"/>
<path d="M0 0 C2 1 2 1 2 1 Z " fill="#672217" transform="translate(248,112)"/>
<path d="M0 0 C2 1 2 1 2 1 Z " fill="#3E1912" transform="translate(289,111)"/>
<path d="" fill="#BF3521" transform="translate(0,0)"/>
<path d="" fill="#BE3521" transform="translate(0,0)"/>
<path d="" fill="#BD3521" transform="translate(0,0)"/>
<path d="" fill="#BD3321" transform="translate(0,0)"/>
<path d="" fill="#BD3522" transform="translate(0,0)"/>
<path d="" fill="#BD3322" transform="translate(0,0)"/>
<path d="" fill="#C13521" transform="translate(0,0)"/>
<path d="" fill="#BD3422" transform="translate(0,0)"/>
<path d="" fill="#4B1A13" transform="translate(0,0)"/>
<path d="" fill="#A93220" transform="translate(0,0)"/>
<path d="" fill="#BD3422" transform="translate(0,0)"/>
<path d="" fill="#BD3320" transform="translate(0,0)"/>
<path d="" fill="#BD3522" transform="translate(0,0)"/>
<path d="" fill="#411913" transform="translate(0,0)"/>
<path d="" fill="#BC3422" transform="translate(0,0)"/>
<path d="" fill="#3B1712" transform="translate(0,0)"/>
<path d="" fill="#000709" transform="translate(0,0)"/>
<path d="" fill="#BC3521" transform="translate(0,0)"/>
<path d="" fill="#BD3421" transform="translate(0,0)"/>
<path d="" fill="#BE3422" transform="translate(0,0)"/>
<path d="" fill="#301611" transform="translate(0,0)"/>
<path d="" fill="#00090A" transform="translate(0,0)"/>
<path d="" fill="#BD3522" transform="translate(0,0)"/>
<path d="" fill="#BF3622" transform="translate(0,0)"/>
<path d="" fill="#1C110E" transform="translate(0,0)"/>
<path d="" fill="#321611" transform="translate(0,0)"/>
<path d="" fill="#00090A" transform="translate(0,0)"/>
<path d="" fill="#BD3524" transform="translate(0,0)"/>
<path d="" fill="#000709" transform="translate(0,0)"/>
<path d="" fill="#331611" transform="translate(0,0)"/>
<path d="" fill="#00090B" transform="translate(0,0)"/>
<path d="" fill="#BD3623" transform="translate(0,0)"/>
<path d="" fill="#000709" transform="translate(0,0)"/>
<path d="" fill="#331611" transform="translate(0,0)"/>
<path d="" fill="#00090B" transform="translate(0,0)"/>
<path d="" fill="#BC3521" transform="translate(0,0)"/>
<path d="" fill="#000709" transform="translate(0,0)"/>
<path d="" fill="#331611" transform="translate(0,0)"/>
<path d="" fill="#00090B" transform="translate(0,0)"/>
<path d="" fill="#BD3421" transform="translate(0,0)"/>
<path d="" fill="#000709" transform="translate(0,0)"/>
<path d="" fill="#331611" transform="translate(0,0)"/>
<path d="" fill="#00090B" transform="translate(0,0)"/>
<path d="" fill="#000608" transform="translate(0,0)"/>
<path d="" fill="#341711" transform="translate(0,0)"/>
<path d="" fill="#00090A" transform="translate(0,0)"/>
<path d="" fill="#BD3421" transform="translate(0,0)"/>
<path d="" fill="#000608" transform="translate(0,0)"/>
<path d="" fill="#351711" transform="translate(0,0)"/>
<path d="" fill="#00080A" transform="translate(0,0)"/>
<path d="" fill="#BB3320" transform="translate(0,0)"/>
<path d="" fill="#000508" transform="translate(0,0)"/>
<path d="" fill="#371712" transform="translate(0,0)"/>
<path d="" fill="#000809" transform="translate(0,0)"/>
<path d="" fill="#000508" transform="translate(0,0)"/>
<path d="" fill="#3A1812" transform="translate(0,0)"/>
<path d="" fill="#000809" transform="translate(0,0)"/>
<path d="" fill="#BB3322" transform="translate(0,0)"/>
<path d="" fill="#261410" transform="translate(0,0)"/>
<path d="" fill="#000408" transform="translate(0,0)"/>
<path d="" fill="#3D1812" transform="translate(0,0)"/>
<path d="" fill="#000709" transform="translate(0,0)"/>
<path d="" fill="#120F0D" transform="translate(0,0)"/>
<path d="" fill="#431A13" transform="translate(0,0)"/>
<path d="" fill="#000709" transform="translate(0,0)"/>
<path d="" fill="#BB3421" transform="translate(0,0)"/>
<path d="" fill="#7D271A" transform="translate(0,0)"/>
<path d="" fill="#602016" transform="translate(0,0)"/>
<path d="" fill="#17100E" transform="translate(0,0)"/>
<path d="" fill="#000B0B" transform="translate(0,0)"/>
<path d="" fill="#1A110E" transform="translate(0,0)"/>
<path d="" fill="#0B0D0D" transform="translate(0,0)"/>
<path d="" fill="#00080A" transform="translate(0,0)"/>
<path d="" fill="#521E14" transform="translate(0,0)"/>
<path d="" fill="#3A1712" transform="translate(0,0)"/>
<path d="" fill="#000709" transform="translate(0,0)"/>
<path d="" fill="#8F2A1C" transform="translate(0,0)"/>
<path d="" fill="#000608" transform="translate(0,0)"/>
<path d="" fill="#000709" transform="translate(0,0)"/>
<path d="" fill="#22120F" transform="translate(0,0)"/>
<path d="" fill="#0D0E0C" transform="translate(0,0)"/>
<path d="" fill="#000A0B" transform="translate(0,0)"/>
<path d="" fill="#5F2016" transform="translate(0,0)"/>
<path d="" fill="#3E1812" transform="translate(0,0)"/>
<path d="" fill="#160F0D" transform="translate(0,0)"/>
<path d="" fill="#982C1D" transform="translate(0,0)"/>
<path d="" fill="#3A1712" transform="translate(0,0)"/>
<path d="" fill="#712419" transform="translate(0,0)"/>
<path d="" fill="#291310" transform="translate(0,0)"/>
<path d="" fill="#100D0D" transform="translate(0,0)"/>
<path d="" fill="#6F2317" transform="translate(0,0)"/>
<path d="" fill="#3F1912" transform="translate(0,0)"/>
<path d="" fill="#441912" transform="translate(0,0)"/>
<path d="" fill="#331611" transform="translate(0,0)"/>
<path d="" fill="#120F0D" transform="translate(0,0)"/>
<path d="" fill="#86291B" transform="translate(0,0)"/>
<path d="" fill="#431A12" transform="translate(0,0)"/>
<path d="" fill="#642016" transform="translate(0,0)"/>
<path d="" fill="#0C0E0D" transform="translate(0,0)"/>
<path d="" fill="#3D1913" transform="translate(0,0)"/>
<path d="" fill="#150F0E" transform="translate(0,0)"/>
<path d="" fill="#451A13" transform="translate(0,0)"/>
<path d="" fill="#130F0D" transform="translate(0,0)"/>
<path d="" fill="#471B14" transform="translate(0,0)"/>
<path d="" fill="#17100E" transform="translate(0,0)"/>
<path d="" fill="#4A1B14" transform="translate(0,0)"/>
<path d="" fill="#BF3420" transform="translate(0,0)"/>
<path d="" fill="#1B110E" transform="translate(0,0)"/>
<path d="" fill="#BA3321" transform="translate(0,0)"/>
<path d="" fill="#531E14" transform="translate(0,0)"/>
<path d="" fill="#1A110E" transform="translate(0,0)"/>
<path d="" fill="#3F1A14" transform="translate(0,0)"/>
<path d="" fill="#5A2018" transform="translate(0,0)"/>
<path d="" fill="#BD3422" transform="translate(0,0)"/>
<path d="" fill="#2A1712" transform="translate(0,0)"/>
<path d="" fill="#BB3220" transform="translate(0,0)"/>
<path d="" fill="#26130F" transform="translate(0,0)"/>
<path d="" fill="#B93320" transform="translate(0,0)"/>
<path d="" fill="#BE3420" transform="translate(0,0)"/>
<path d="" fill="#BA3320" transform="translate(0,0)"/>
<path d="" fill="#BE3420" transform="translate(0,0)"/>
<path d="" fill="#BD3521" transform="translate(0,0)"/>
<path d="" fill="#BE3521" transform="translate(0,0)"/>
<path d="" fill="#BD3520" transform="translate(0,0)"/>
<path d="" fill="#BD3521" transform="translate(0,0)"/>
<path d="" fill="#BE3521" transform="translate(0,0)"/>
<path d="" fill="#BD3521" transform="translate(0,0)"/>
<path d="" fill="#BE3721" transform="translate(0,0)"/>
<path d="" fill="#BD3521" transform="translate(0,0)"/>
<path d="" fill="#C03721" transform="translate(0,0)"/>
<path d="" fill="#BD3521" transform="translate(0,0)"/>
<path d="" fill="#BD3420" transform="translate(0,0)"/>
<path d="" fill="#BC3420" transform="translate(0,0)"/>
<path d="" fill="#BB3420" transform="translate(0,0)"/>
<path d="" fill="#BD3521" transform="translate(0,0)"/>
<path d="" fill="#BB3421" transform="translate(0,0)"/>
<path d="" fill="#BD3420" transform="translate(0,0)"/>
<path d="" fill="#BD3321" transform="translate(0,0)"/>
<path d="" fill="#BD3521" transform="translate(0,0)"/>
<path d="" fill="#BD3421" transform="translate(0,0)"/>
<path d="" fill="#BD3522" transform="translate(0,0)"/>
<path d="" fill="#BD3521" transform="translate(0,0)"/>
<path d="" fill="#BD3522" transform="translate(0,0)"/>
<path d="" fill="#BC3521" transform="translate(0,0)"/>
<path d="" fill="#BC3522" transform="translate(0,0)"/>
<path d="" fill="#BD3521" transform="translate(0,0)"/>
<path d="" fill="#BC3622" transform="translate(0,0)"/>
<path d="" fill="#BC3521" transform="translate(0,0)"/>
<path d="" fill="#BD3522" transform="translate(0,0)"/>
<path d="" fill="#4E1C14" transform="translate(0,0)"/>
<path d="" fill="#BE3623" transform="translate(0,0)"/>
<path d="" fill="#BD3522" transform="translate(0,0)"/>
<path d="" fill="#BD3522" transform="translate(0,0)"/>
<path d="" fill="#5B1F16" transform="translate(0,0)"/>
<path d="" fill="#BD3521" transform="translate(0,0)"/>
<path d="" fill="#BC3421" transform="translate(0,0)"/>
<path d="" fill="#BB3320" transform="translate(0,0)"/>
<path d="" fill="#30150F" transform="translate(0,0)"/>
<path d="" fill="#601F16" transform="translate(0,0)"/>
<path d="" fill="#9E2D1D" transform="translate(0,0)"/>
<path d="" fill="#BA3321" transform="translate(0,0)"/>
<path d="" fill="#110E0D" transform="translate(0,0)"/>
<path d="" fill="#BA3420" transform="translate(0,0)"/>
<path d="" fill="#26130F" transform="translate(0,0)"/>
<path d="" fill="#441913" transform="translate(0,0)"/>
<path d="" fill="#371711" transform="translate(0,0)"/>
<path d="" fill="#BB3321" transform="translate(0,0)"/>
<path d="" fill="#3F1812" transform="translate(0,0)"/>
<path d="" fill="#3D1912" transform="translate(0,0)"/>
<path d="" fill="#401913" transform="translate(0,0)"/>
<path d="" fill="#371712" transform="translate(0,0)"/>
<path d="" fill="#311611" transform="translate(0,0)"/>
<path d="" fill="#2C1510" transform="translate(0,0)"/>
<path d="" fill="#3C1812" transform="translate(0,0)"/>
<path d="" fill="#25130F" transform="translate(0,0)"/>
<path d="" fill="#1B110E" transform="translate(0,0)"/>
<path d="" fill="#100E0C" transform="translate(0,0)"/>
<path d="" fill="#3B1812" transform="translate(0,0)"/>
<path d="" fill="#040B0B" transform="translate(0,0)"/>
<path d="" fill="#00090A" transform="translate(0,0)"/>
<path d="" fill="#000709" transform="translate(0,0)"/>
<path d="" fill="#381711" transform="translate(0,0)"/>
<path d="" fill="#9E2C1C" transform="translate(0,0)"/>
<path d="" fill="#602016" transform="translate(0,0)"/>
<path d="" fill="#351611" transform="translate(0,0)"/>
<path d="" fill="#3E1913" transform="translate(0,0)"/>
<path d="" fill="#B43521" transform="translate(0,0)"/>
<path d="" fill="#AA2F1E" transform="translate(0,0)"/>
<path d="" fill="#24130F" transform="translate(0,0)"/>
<path d="" fill="#0F0D0D" transform="translate(0,0)"/>
<path d="" fill="#B83320" transform="translate(0,0)"/>
<path d="" fill="#B2321E" transform="translate(0,0)"/>
<path d="" fill="#000A0A" transform="translate(0,0)"/>
<path d="" fill="#B33220" transform="translate(0,0)"/>
<path d="" fill="#B13221" transform="translate(0,0)"/>
<path d="" fill="#B8331F" transform="translate(0,0)"/>
<path d="" fill="#BB3623" transform="translate(0,0)"/>
<path d="" fill="#000608" transform="translate(0,0)"/>
<path d="" fill="#B33220" transform="translate(0,0)"/>
<path d="" fill="#B23120" transform="translate(0,0)"/>
<path d="" fill="#BB3320" transform="translate(0,0)"/>
<path d="" fill="#BD3423" transform="translate(0,0)"/>
<path d="" fill="#B83320" transform="translate(0,0)"/>
<path d="" fill="#B83220" transform="translate(0,0)"/>
<path d="" fill="#BD3321" transform="translate(0,0)"/>
<path d="" fill="#622117" transform="translate(0,0)"/>
<path d="" fill="#BE3521" transform="translate(0,0)"/>
<path d="" fill="#3A1812" transform="translate(0,0)"/>
<path d="" fill="#BC3321" transform="translate(0,0)"/>
<path d="" fill="#24120F" transform="translate(0,0)"/>
<path d="" fill="#BC3321" transform="translate(0,0)"/>
<path d="" fill="#BC3422" transform="translate(0,0)"/>
<path d="" fill="#BC3420" transform="translate(0,0)"/>
<path d="" fill="#BD3422" transform="translate(0,0)"/>
<path d="" fill="#1B100E" transform="translate(0,0)"/>
<path d="" fill="#BC3320" transform="translate(0,0)"/>
<path d="" fill="#BC3321" transform="translate(0,0)"/>
<path d="" fill="#BD3421" transform="translate(0,0)"/>
<path d="" fill="#18100D" transform="translate(0,0)"/>
<path d="" fill="#BD3422" transform="translate(0,0)"/>
<path d="" fill="#18100D" transform="translate(0,0)"/>
<path d="" fill="#BC3321" transform="translate(0,0)"/>
<path d="" fill="#19100D" transform="translate(0,0)"/>
<path d="" fill="#BC3421" transform="translate(0,0)"/>
<path d="" fill="#BD3521" transform="translate(0,0)"/>
<path d="" fill="#BC3420" transform="translate(0,0)"/>
<path d="" fill="#BD3421" transform="translate(0,0)"/>
<path d="" fill="#22120F" transform="translate(0,0)"/>
<path d="" fill="#BC3321" transform="translate(0,0)"/>
<path d="" fill="#BB3420" transform="translate(0,0)"/>
<path d="" fill="#BD3421" transform="translate(0,0)"/>
<path d="" fill="#381712" transform="translate(0,0)"/>
<path d="" fill="#BD3522" transform="translate(0,0)"/>
<path d="" fill="#6C2219" transform="translate(0,0)"/>
<path d="" fill="#BC3421" transform="translate(0,0)"/>
<path d="" fill="#BC3421" transform="translate(0,0)"/>
<path d="" fill="#BD3521" transform="translate(0,0)"/>
<path d="" fill="#BC3321" transform="translate(0,0)"/>
<path d="" fill="#BE3522" transform="translate(0,0)"/>
<path d="" fill="#B93320" transform="translate(0,0)"/>
<path d="" fill="#BC3321" transform="translate(0,0)"/>
<path d="" fill="#BC3321" transform="translate(0,0)"/>
<path d="" fill="#BD3421" transform="translate(0,0)"/>
<path d="" fill="#6B2217" transform="translate(0,0)"/>
<path d="" fill="#BE3521" transform="translate(0,0)"/>
<path d="" fill="#BD3521" transform="translate(0,0)"/>
<path d="" fill="#BC3420" transform="translate(0,0)"/>
<path d="" fill="#BD3421" transform="translate(0,0)"/>
<path d="" fill="#BD3521" transform="translate(0,0)"/>
<path d="" fill="#BC3421" transform="translate(0,0)"/>
<path d="" fill="#BD3422" transform="translate(0,0)"/>
<path d="" fill="#BC3420" transform="translate(0,0)"/>
<path d="" fill="#BC3420" transform="translate(0,0)"/>
<path d="" fill="#BD3421" transform="translate(0,0)"/>
<path d="" fill="#BD3422" transform="translate(0,0)"/>
<path d="" fill="#BD3521" transform="translate(0,0)"/>
<path d="" fill="#BC3320" transform="translate(0,0)"/>
<path d="" fill="#BB3421" transform="translate(0,0)"/>
<path d="" fill="#BD3421" transform="translate(0,0)"/>
<path d="" fill="#BD3521" transform="translate(0,0)"/>
<path d="" fill="#BC3421" transform="translate(0,0)"/>
<path d="" fill="#BE3521" transform="translate(0,0)"/>
<path d="" fill="#BC3420" transform="translate(0,0)"/>
<path d="" fill="#BC3420" transform="translate(0,0)"/>
<path d="" fill="#BD3321" transform="translate(0,0)"/>
<path d="" fill="#BD3421" transform="translate(0,0)"/>
<path d="" fill="#BD3522" transform="translate(0,0)"/>
<path d="" fill="#BD3421" transform="translate(0,0)"/>
<path d="" fill="#BD3522" transform="translate(0,0)"/>
<path d="" fill="#BC3421" transform="translate(0,0)"/>
<path d="" fill="#BD3321" transform="translate(0,0)"/>
<path d="" fill="#BC3421" transform="translate(0,0)"/>
<path d="" fill="#BD3521" transform="translate(0,0)"/>
<path d="" fill="#BC3321" transform="translate(0,0)"/>
<path d="" fill="#BE3522" transform="translate(0,0)"/>
<path d="" fill="#BD3421" transform="translate(0,0)"/>
<path d="" fill="#BD3420" transform="translate(0,0)"/>
<path d="" fill="#BC3420" transform="translate(0,0)"/>
<path d="" fill="#BD3321" transform="translate(0,0)"/>
<path d="" fill="#BD3421" transform="translate(0,0)"/>
<path d="" fill="#BD3522" transform="translate(0,0)"/>
<path d="" fill="#BE3421" transform="translate(0,0)"/>
<path d="" fill="#BE3522" transform="translate(0,0)"/>
<path d="" fill="#BC3421" transform="translate(0,0)"/>
<path d="" fill="#7A2519" transform="translate(0,0)"/>
<path d="" fill="#BD3320" transform="translate(0,0)"/>
<path d="" fill="#BD3422" transform="translate(0,0)"/>
<path d="" fill="#BD3522" transform="translate(0,0)"/>
<path d="" fill="#BC3320" transform="translate(0,0)"/>
<path d="" fill="#6E2217" transform="translate(0,0)"/>
<path d="" fill="#BC3320" transform="translate(0,0)"/>
<path d="" fill="#BD3421" transform="translate(0,0)"/>
<path d="" fill="#2D140E" transform="translate(0,0)"/>
<path d="" fill="#BD3321" transform="translate(0,0)"/>
<path d="" fill="#BD3420" transform="translate(0,0)"/>
<path d="" fill="#BD3421" transform="translate(0,0)"/>
<path d="" fill="#16100E" transform="translate(0,0)"/>
<path d="" fill="#BD3421" transform="translate(0,0)"/>
<path d="" fill="#3C1913" transform="translate(0,0)"/>
<path d="" fill="#BD3421" transform="translate(0,0)"/>
<path d="" fill="#5D1F16" transform="translate(0,0)"/>
<path d="" fill="#BE3421" transform="translate(0,0)"/>
<path d="" fill="#742418" transform="translate(0,0)"/>
<path d="" fill="#83291A" transform="translate(0,0)"/>
<path d="" fill="#501C15" transform="translate(0,0)"/>
<path d="" fill="#130F0D" transform="translate(0,0)"/>
<path d="" fill="#060B0B" transform="translate(0,0)"/>
<path d="" fill="#211310" transform="translate(0,0)"/>
<path d="" fill="#25130F" transform="translate(0,0)"/>
<path d="" fill="#00070A" transform="translate(0,0)"/>
<path d="" fill="#080D0C" transform="translate(0,0)"/>
<path d="" fill="#501D15" transform="translate(0,0)"/>
<path d="" fill="#120F0D" transform="translate(0,0)"/>
<path d="" fill="#120F0D" transform="translate(0,0)"/>
<path d="" fill="#130F0D" transform="translate(0,0)"/>
<path d="" fill="#29140F" transform="translate(0,0)"/>
<path d="" fill="#291410" transform="translate(0,0)"/>
</svg>
